0
SECTION
2
HEADER
9
$ACADVER
1
AC1009
0
ENDSEC
0
SECTION
2
TABLES
0
TABLE
2
LAYER
70
4
0
LAYER
2
WALLS
70
0
62
7
6
CONTINUOUS
0
LAYER
2
DOOR
70
0
62
2
6
CONTINUOUS
0
LAYER
2
WINDOW
70
0
62
4
6
CONTINUOUS
0
LAYER
2
LABELS
70
0
62
3
6
CONTINUOUS
0
ENDTAB
0
ENDSEC
0
SECTION
2
ENTITIES
0
LINE
8
WALLS
10
0
20
0
11
12000
21
0
0
LINE
8
WALLS
10
12000
20
0
11
12000
21
10000
0
LINE
8
WALLS
10
12000
20
10000
11
0
21
10000
0
LINE
8
WALLS
10
0
20
10000
11
0
21
0
0
LINE
8
WALLS
10
5000
20
0
11
5000
21
10000
0
LINE
8
WALLS
10
8500
20
0
11
8500
21
10000
0
LINE
8
WALLS
10
0
20
5000
11
5000
21
5000
0
LINE
8
WALLS
10
5000
20
5500
11
12000
21
5500
0
LINE
8
WALLS
10
8500
20
7500
11
12000
21
7500
0
LINE
8
DOOR
10
4500
20
0
11
4500
21
1000
0
ARC
8
DOOR
10
4500
20
0
40
1000
50
0
51
90
0
LINE
8
DOOR
10
5000
20
1800
11
6000
21
1800
0
ARC
8
DOOR
10
5000
20
1800
40
1000
50
90
51
180
0
LINE
8
DOOR
10
5000
20
6500
11
6000
21
6500
0
ARC
8
DOOR
10
5000
20
6500
40
1000
50
180
51
270
0
LINE
8
DOOR
10
8500
20
6500
11
9500
21
6500
0
ARC
8
DOOR
10
8500
20
6500
40
1000
50
180
51
270
0
LINE
8
DOOR
10
8500
20
2500
11
9500
21
2500
0
ARC
8
DOOR
10
8500
20
2500
40
1000
50
270
51
360
0
LINE
8
DOOR
10
8500
20
8000
11
9300
21
8000
0
ARC
8
DOOR
10
8500
20
8000
40
800
50
270
51
360
0
LINE
8
DOOR
10
8500
20
6500
11
9300
21
6500
0
LINE
8
WINDOW
10
800
20
10000
11
2800
21
10000
0
LINE
8
WINDOW
10
6000
20
10000
11
7600
21
10000
0
LINE
8
WINDOW
10
9000
20
10000
11
10800
21
10000
0
LINE
8
WINDOW
10
0
20
6500
11
0
21
8500
0
LINE
8
WINDOW
10
0
20
1500
11
0
21
3500
0
LINE
8
WINDOW
10
12000
20
1200
11
12000
21
3200
0
LINE
8
WINDOW
10
12000
20
6500
11
12000
21
7200
0
LINE
8
WINDOW
10
6000
20
0
11
7600
21
0
0
TEXT
8
LABELS
10
1200
20
2500
40
350
1
BEDROOM 1
0
TEXT
8
LABELS
10
1200
20
7500
40
350
1
BEDROOM 2
0
TEXT
8
LABELS
10
5700
20
3000
40
350
1
LIVING ROOM
0
TEXT
8
LABELS
10
5700
20
7800
40
350
1
DINING
0
TEXT
8
LABELS
10
9200
20
3000
40
350
1
KITCHEN
0
TEXT
8
LABELS
10
9200
20
6500
40
300
1
BATH
0
TEXT
8
LABELS
10
9200
20
8700
40
300
1
BATH
0
TEXT
8
LABELS
10
3500
20
-700
40
250
1
MAIN ENTRANCE
0
TEXT
8
LABELS
10
5000
20
10700
40
450
1
SIMPLE 12m x 10m HOUSE PLAN
0
TEXT
8
DIMENSIONS
10
5200
20
-1200
40
220
1
12000 mm OVERALL WIDTH
0
TEXT
8
DIMENSIONS
10
12400
20
4500
40
220
1
10000 mm OVERALL DEPTH
0
ENDSEC
0
EOF
